<svg xmlns="http://www.w3.org/2000/svg" version="1.0" width="512.000000pt" height="512.000000pt" viewBox="0 0 512.000000 512.000000" preserveAspectRatio="xMidYMid meet">

<g transform="translate(0.000000,512.000000) scale(0.100000,-0.100000)" fill="#fff" stroke="none">
<path d="M1789 5104 c-208 -37 -381 -119 -537 -253 l-52 -45 52 -53 c29 -29 55 -53 58 -53 3 0 39 27 80 60 93 75 199 131 315 166 82 25 105 28 255 28 143 1 176 -2 245 -22 112 -32 247 -101 335 -172 41 -33 77 -60 80 -60 3 0 30 24 59 54 l53 53 -84 67 c-243 196 -568 283 -859 230z"/>
<path d="M1838 4840 c-141 -25 -267 -82 -376 -167 l-72 -57 52 -53 c29 -29 56 -53 60 -53 5 0 32 20 62 44 54 44 121 79 211 112 39 14 80 18 190 18 110 0 151 -4 190 -18 90 -33 157 -68 211 -112 30 -24 57 -44 61 -44 4 0 31 23 59 51 l52 51 -37 32 c-93 83 -201 142 -323 176 -82 24 -264 34 -340 20z"/>
<path d="M1860 4559 c-66 -11 -181 -65 -233 -111 l-38 -33 54 -53 55 -54 52 36 c64 44 135 66 215 66 80 0 151 -22 215 -66 l52 -36 55 54 54 53 -38 33 c-109 96 -277 138 -443 111z"/>
<path d="M1900 4139 c-34 -15 -189 -164 -663 -637 -372 -371 -627 -633 -639 -657 -11 -22 -23 -67 -26 -100 -8 -109 5 -127 298 -420 143 -143 260 -265 260 -272 0 -7 -48 -185 -106 -395 -58 -211 -112 -405 -120 -433 -80 -289 69 -657 380 -940 145 -132 283 -214 433 -257 108 -31 294 -32 403 -1 185 53 308 130 485 304 l131 128 114 -115 c153 -155 218 -183 336 -149 59 16 61 19 691 648 702 700 680 675 671 792 -3 34 -13 76 -23 95 -10 19 -80 98 -156 176 l-139 140 31 30 c51 47 80 102 86 158 4 43 0 60 -24 106 -41 77 -94 113 -178 118 -55 4 -70 1 -107 -21 -54 -32 -360 -340 -383 -385 -60 -119 33 -282 171 -298 77 -9 117 9 204 92 l76 73 47 -47 47 -47 -645 -645 -645 -645 -643 643 -644 643 23 112 c34 167 75 475 81 617 4 98 2 137 -10 180 -38 130 -178 199 -279 137 -76 -46 -101 -100 -183 -387 -32 -113 -61 -208 -65 -212 -3 -4 -75 62 -160 147 l-155 155 645 645 645 645 290 -290 290 -290 -67 -67 c-81 -84 -101 -121 -100 -191 1 -102 91 -198 196 -209 80 -9 130 24 317 214 181 184 207 223 196 304 -14 102 -112 192 -210 192 -63 0 -107 -20 -165 -76 l-42 -41 -358 356 c-265 265 -369 362 -402 377 -60 27 -150 27 -210 0z m-316 -575 c9 -3 16 -14 16 -23 0 -26 -395 -415 -414 -408 -9 4 -16 14 -16 24 0 10 89 107 197 215 109 109 199 198 200 198 1 0 8 -3 17 -6z m2186 -2429 c37 -19 60 -63 60 -115 0 -32 -7 -48 -34 -78 -31 -33 -40 -37 -83 -37 -60 0 -99 24 -120 72 -18 43 -11 90 19 128 36 46 103 58 158 30z"/>
<path d="M3350 3155 c-45 -20 -375 -348 -402 -399 -60 -116 32 -278 166 -293 97 -11 105 -6 304 190 101 100 193 200 204 221 44 85 9 198 -81 261 -52 35 -136 44 -191 20z"/>
<path d="M3694 2795 c-75 -37 -375 -343 -399 -408 -57 -151 89 -314 249 -276 47 11 64 25 229 188 99 97 188 193 198 214 52 101 6 227 -104 282 -64 32 -110 32 -173 0z"/>
</g>
</svg>